<?xml version="1.0" encoding="utf-8"?>
<!-- Generator: Adobe Illustrator 27.0.0, SVG Export Plug-In . SVG Version: 6.00 Build 0)  -->
<svg version="1.1" id="图层_1" xmlns="http://www.w3.org/2000/svg" x="0px" y="0px"
	 viewBox="0 0 512 512" style="enable-background:new 0 0 512 512;" xml:space="preserve">
<path d="M443.5,113.3L112.9,443.9c-8.7,8.7-22.8,8.7-31.5,0l-13.8-13.8c-8.7-8.7-8.7-22.8,0-31.5L398.3,68.1
	c8.7-8.7,22.8-8.7,31.5,0l13.8,13.8C452.2,90.6,452.2,104.7,443.5,113.3z"/>
<path d="M398.1,444.4L67.6,113.8c-8.7-8.7-8.7-22.8,0-31.5l13.8-13.8c8.7-8.7,22.8-8.7,31.5,0l330.6,330.6c8.7,8.7,8.7,22.8,0,31.5
	l-13.8,13.8C420.9,453.1,406.8,453.1,398.1,444.4z"/>
</svg>
